<svg xmlns="http://www.w3.org/2000/svg" viewBox="0 0 318.05 68.26"><defs><style>.cls-1{fill:#fff;}</style></defs><title>logo</title><g id="Capa_2" data-name="Capa 2"><g id="Capa_3" data-name="Capa 3"><path class="cls-1" d="M262.81,0c-36.38,0-55.26,34.13-55.26,34.13s18.88,34.13,55.26,34.13,55.24-34.13,55.24-34.13S299.18,0,262.81,0Zm0,63.6a29.47,29.47,0,1,1,29.47-29.47A29.47,29.47,0,0,1,262.8,63.6Z"/><circle class="cls-1" cx="262.8" cy="34.13" r="17.33"/><path class="cls-1" d="M0,0H36A48.52,48.52,0,0,1,49.61,1.7a26.15,26.15,0,0,1,9.57,4.92,19.64,19.64,0,0,1,5.65,7.84,27.73,27.73,0,0,1,1.86,10.43A27.18,27.18,0,0,1,64.86,35a21.14,21.14,0,0,1-5.62,8,26.7,26.7,0,0,1-9.54,5.28,43.54,43.54,0,0,1-13.63,1.9l-22.23,0V68.26H0ZM36.34,38.17a22.62,22.62,0,0,0,6.88-.94,13.7,13.7,0,0,0,4.93-2.66,10.85,10.85,0,0,0,3-4.19,14.66,14.66,0,0,0,1-5.49q0-6.06-4-9.45T36.34,12.05H13.84V38.17Z"/><path class="cls-1" d="M108.84,19.78l6.55-8h-41V0h66.78L102.94,48l-6.81,8.47H139V68.26H71Z"/><polygon class="cls-1" points="181.9 34.13 214.86 68.26 196.41 68.26 172.36 43.38 163.39 52.06 163.39 68.27 149.54 68.27 149.54 0 163.39 0 163.39 35.33 199.42 0 217.15 0 181.9 34.13"/></g></g></svg>